<?xml version="1.0" standalone="no"?>
<!DOCTYPE svg PUBLIC "-//W3C//DTD SVG 20010904//EN"
 "http://www.w3.org/TR/2001/REC-SVG-20010904/DTD/svg10.dtd">
<svg version="1.0" xmlns="http://www.w3.org/2000/svg"
 width="700.000000pt" height="700.000000pt" viewBox="0 0 700.000000 700.000000"
 preserveAspectRatio="xMidYMid meet">
<metadata>
Created by potrace 1.14, written by Peter Selinger 2001-2017
</metadata>
<g transform="translate(0.000000,700.000000) scale(0.100000,-0.100000)"
fill="#000000" stroke="none">
<path d="M3278 6996 c-1 -2 -42 -6 -89 -10 -47 -4 -95 -8 -105 -10 -10 -2 -46
-7 -79 -11 -32 -4 -68 -9 -80 -11 -11 -2 -45 -8 -75 -14 -83 -15 -89 -16 -180
-40 -47 -12 -95 -24 -108 -26 -38 -7 -259 -83 -367 -126 -819 -325 -1531
-1006 -1880 -1798 -26 -58 -51 -114 -56 -125 -58 -127 -147 -421 -190 -630 -7
-33 -13 -62 -14 -65 0 -3 -4 -27 -9 -55 -4 -27 -9 -63 -12 -79 -3 -16 -7 -50
-9 -75 -3 -25 -8 -82 -12 -126 -16 -161 -8 -572 13 -710 2 -16 6 -48 9 -70 38
-336 168 -753 344 -1098 223 -437 516 -802 898 -1119 85 -71 327 -248 338
-248 3 0 35 -19 72 -43 174 -111 468 -248 699 -326 191 -64 430 -120 623 -147
25 -3 57 -8 71 -10 165 -26 681 -25 842 1 13 2 46 6 73 10 28 3 57 8 65 10 8
2 31 6 50 9 278 44 612 150 897 287 932 446 1633 1297 1882 2284 35 141 77
361 87 460 3 39 8 84 11 100 8 61 10 513 2 597 -13 144 -22 210 -39 308 -6 36
-13 79 -16 95 -12 66 -74 306 -104 394 -86 265 -223 556 -366 782 -77 121
-231 333 -296 406 -253 282 -420 432 -691 622 -48 33 -90 61 -92 61 -2 0 -35
20 -72 44 -94 61 -315 173 -458 234 -245 103 -547 189 -795 227 -25 4 -53 9
-62 11 -9 1 -43 6 -75 9 -32 4 -76 9 -98 12 -44 5 -541 13 -547 9z m471 -170
c83 -6 137 -12 211 -22 19 -3 53 -7 75 -10 103 -13 378 -81 522 -129 328 -110
672 -291 945 -498 115 -87 124 -94 238 -197 309 -276 592 -655 770 -1032 98
-210 205 -509 234 -658 3 -14 12 -56 20 -95 17 -78 26 -126 32 -170 28 -209
37 -331 37 -510 1 -136 -9 -342 -17 -366 -3 -8 -7 -41 -10 -74 -7 -68 -10 -89
-32 -200 -67 -346 -199 -705 -368 -1001 -68 -119 -75 -130 -103 -171 -13 -17
-23 -34 -23 -38 0 -3 -5 -11 -10 -18 -6 -7 -43 -57 -83 -112 -212 -291 -507
-575 -821 -790 -56 -38 -116 -77 -132 -85 -16 -8 -45 -26 -64 -38 -52 -35
-342 -175 -446 -215 -221 -86 -529 -170 -709 -193 -22 -3 -69 -9 -105 -14
-261 -37 -642 -30 -935 16 -224 35 -567 129 -710 194 -11 5 -67 30 -125 55
-368 161 -694 387 -1000 694 -277 278 -465 539 -630 876 -113 231 -210 496
-255 695 -30 139 -53 271 -70 400 -31 253 -23 650 20 900 38 223 113 514 163
630 6 14 23 57 38 95 39 104 134 300 205 422 261 455 657 867 1103 1150 110
70 362 204 461 245 22 9 67 28 100 41 163 68 465 153 645 183 54 9 87 14 130
19 25 3 63 7 85 10 22 3 90 8 150 12 61 3 111 6 112 7 5 4 269 -2 352 -8z"/>
<path d="M2046 5793 c-69 -16 -179 -69 -261 -128 -275 -196 -463 -549 -410
-770 21 -89 29 -114 51 -168 110 -264 306 -636 472 -897 161 -253 383 -549
553 -735 20 -22 49 -53 64 -70 200 -222 508 -498 765 -686 133 -98 470 -319
486 -319 2 0 32 -17 67 -38 169 -102 631 -320 787 -370 171 -55 349 -59 495
-10 218 72 389 255 487 520 25 68 31 99 31 168 1 98 -19 154 -80 228 -188 230
-668 574 -914 656 -160 53 -272 3 -410 -184 -70 -95 -122 -144 -176 -170 -134
-63 -269 -41 -503 81 -189 100 -319 196 -471 350 -255 259 -483 657 -474 829
6 105 48 174 155 253 77 56 146 124 180 177 81 127 73 291 -21 459 -70 125
-416 594 -518 704 -106 113 -218 151 -355 120z m135 -163 c20 -6 54 -27 76
-48 98 -91 468 -594 531 -720 80 -164 50 -266 -115 -388 -40 -30 -91 -72 -112
-94 -47 -48 -95 -138 -111 -209 -17 -72 -7 -199 21 -281 52 -153 212 -428 342
-590 77 -96 242 -261 332 -332 167 -132 412 -269 570 -318 175 -53 346 -32
473 60 70 51 92 72 149 150 145 195 174 204 354 112 310 -159 732 -499 775
-624 24 -71 -28 -229 -118 -364 -75 -113 -168 -186 -287 -227 -64 -22 -228
-31 -288 -16 -229 58 -626 243 -998 466 -122 73 -308 199 -444 301 -312 235
-575 485 -874 833 -70 81 -243 312 -330 442 -80 118 -237 372 -237 383 0 2
-11 21 -24 42 -36 57 -155 290 -224 440 -132 284 -138 352 -52 537 90 193 282
376 462 439 51 18 81 19 129 6z"/>
</g>
</svg>
