<svg xmlns="http://www.w3.org/2000/svg" xmlns:xlink="http://www.w3.org/1999/xlink" width="600" zoomAndPan="magnify" viewBox="0 0 450 225" height="300" preserveAspectRatio="xMidYMid meet" version="1.0"><defs><g/><clipPath id="f07dda2abf"><path d="M 135 33.851562 L 315 33.851562 L 315 191.351562 L 135 191.351562 Z M 135 33.851562 " clip-rule="nonzero"/></clipPath></defs><g clip-path="url(#f07dda2abf)"><path fill="#e6ddd1" d="M 306.550781 84.964844 C 299.988281 81.816406 290.972656 85.976562 283.085938 94.738281 C 283.113281 94.007812 283.140625 93.28125 283.140625 92.542969 C 283.140625 60.121094 256.867188 33.835938 224.476562 33.835938 C 193.566406 33.835938 168.234375 57.769531 165.980469 88.136719 C 158.339844 80.121094 149.804688 76.433594 143.523438 79.453125 C 133.859375 84.097656 133.210938 102.839844 142.066406 121.3125 C 148.277344 134.28125 157.523438 143.648438 165.820312 146.5 L 165.820312 181.335938 C 168.355469 176.226562 173.328125 172.769531 179.039062 172.769531 C 187.335938 172.769531 194.066406 180.070312 194.066406 189.089844 C 194.066406 189.175781 194.054688 189.253906 194.054688 189.34375 L 194.136719 189.34375 C 194.871094 181.074219 201.285156 174.601562 209.089844 174.601562 C 216.011719 174.601562 221.835938 179.6875 223.574219 186.59375 C 225.328125 179.6875 231.140625 174.601562 238.0625 174.601562 C 246.359375 174.601562 253.089844 181.90625 253.089844 190.921875 C 253.089844 191.074219 253.078125 191.222656 253.070312 191.371094 L 253.175781 191.371094 C 253.964844 183.171875 260.351562 176.761719 268.113281 176.761719 C 274.804688 176.761719 280.472656 181.53125 282.417969 188.097656 C 282.875 187.175781 283.140625 186.136719 283.140625 185.03125 L 283.140625 152.363281 C 291.707031 150.003906 301.515625 140.371094 308.007812 126.824219 C 316.863281 108.355469 316.214844 89.609375 306.550781 84.964844 " fill-opacity="1" fill-rule="nonzero"/></g><path fill="#231f1f" d="M 240.5 116.210938 C 240.5 130.734375 232.710938 142.496094 223.117188 142.496094 C 213.511719 142.496094 205.730469 130.734375 205.730469 116.210938 C 205.730469 101.691406 213.511719 89.925781 223.117188 89.925781 C 232.710938 89.925781 240.5 101.691406 240.5 116.210938 " fill-opacity="1" fill-rule="nonzero"/><path fill="#ec1b24" d="M 223.117188 120.847656 C 217.335938 120.847656 212.222656 125.113281 209.0625 131.671875 C 212.222656 138.230469 217.335938 142.496094 223.117188 142.496094 C 228.898438 142.496094 234.011719 138.230469 237.167969 131.671875 C 234.011719 125.113281 228.898438 120.847656 223.117188 120.847656 " fill-opacity="1" fill-rule="nonzero"/><path fill="#231f1f" d="M 205.730469 75.976562 C 205.730469 78.75 203.484375 81.007812 200.714844 81.007812 C 197.941406 81.007812 195.6875 78.75 195.6875 75.976562 C 195.6875 73.203125 197.941406 70.945312 200.714844 70.945312 C 203.484375 70.945312 205.730469 73.203125 205.730469 75.976562 " fill-opacity="1" fill-rule="nonzero"/><path fill="#231f1f" d="M 250.542969 75.976562 C 250.542969 78.75 248.289062 81.007812 245.519531 81.007812 C 242.746094 81.007812 240.5 78.75 240.5 75.976562 C 240.5 73.203125 242.746094 70.945312 245.519531 70.945312 C 248.289062 70.945312 250.542969 73.203125 250.542969 75.976562 " fill-opacity="1" fill-rule="nonzero"/><g fill="#000000" fill-opacity="1"><g transform="translate(-5.130108, 174.520341)"><g><path d="M 130.777344 -50.886719 C 130.523438 -53.175781 129.25 -54.449219 127.46875 -54.957031 C 125.6875 -55.464844 122.890625 -56.484375 120.089844 -56.484375 C 116.019531 -56.738281 115.765625 -54.195312 112.203125 -55.71875 C 111.949219 -57.753906 112.203125 -60.300781 112.203125 -62.84375 C 111.949219 -64.878906 111.949219 -67.167969 111.949219 -69.460938 C 111.949219 -71.75 112.203125 -74.039062 112.203125 -76.074219 C 112.203125 -78.617188 111.949219 -80.65625 112.203125 -82.945312 C 112.203125 -85.488281 112.203125 -87.523438 112.203125 -89.558594 C 112.203125 -91.847656 112.457031 -94.394531 112.457031 -96.683594 C 112.457031 -98.972656 112.203125 -101.261719 112.203125 -103.554688 C 112.203125 -106.097656 112.203125 -108.386719 112.203125 -110.675781 C 112.203125 -112.96875 112.203125 -115.257812 112.203125 -117.546875 C 112.203125 -120.089844 112.457031 -122.382812 112.457031 -124.671875 C 112.457031 -126.960938 112.457031 -129.25 112.457031 -131.539062 C 112.457031 -133.832031 112.203125 -136.375 112.203125 -138.664062 C 112.203125 -140.953125 112.457031 -143.246094 112.457031 -145.535156 C 112.457031 -148.078125 112.457031 -150.113281 112.203125 -151.894531 C 111.949219 -154.949219 111.695312 -156.730469 110.675781 -158.253906 C 109.660156 -160.035156 107.878906 -161.054688 105.335938 -161.308594 C 103.554688 -161.308594 101.261719 -160.800781 98.71875 -160.800781 C 94.902344 -160.800781 92.359375 -160.800781 90.832031 -160.546875 C 88.289062 -159.78125 87.269531 -158.253906 83.960938 -156.476562 C 83.199219 -155.964844 80.910156 -154.183594 78.875 -152.402344 C 77.09375 -150.367188 74.800781 -148.585938 74.292969 -147.824219 C 73.023438 -145.789062 72.257812 -143.5 70.984375 -141.71875 C 69.714844 -139.9375 68.1875 -138.15625 67.167969 -136.375 C 65.898438 -134.339844 64.878906 -132.304688 63.863281 -130.523438 C 62.589844 -128.488281 61.570312 -126.453125 60.300781 -124.671875 C 59.027344 -122.890625 58.011719 -120.855469 56.738281 -119.074219 C 55.464844 -117.292969 54.195312 -115.257812 53.175781 -113.476562 C 51.902344 -111.695312 50.886719 -109.660156 49.613281 -107.625 C 48.597656 -105.84375 47.070312 -104.0625 45.796875 -102.28125 C 44.523438 -100.246094 43.253906 -98.464844 41.980469 -96.683594 C 40.964844 -94.648438 39.4375 -92.867188 38.164062 -91.085938 C 37.148438 -89.050781 36.382812 -87.015625 35.113281 -84.980469 C 33.839844 -83.199219 32.566406 -81.417969 31.550781 -79.382812 C 30.277344 -77.601562 29.003906 -75.566406 27.734375 -73.785156 C 26.714844 -72.003906 25.441406 -70.222656 24.171875 -68.1875 C 23.152344 -66.40625 22.136719 -64.371094 20.863281 -62.335938 C 19.84375 -60.554688 18.828125 -58.519531 17.554688 -56.738281 C 16.027344 -54.957031 15.011719 -52.921875 14.25 -50.632812 C 13.738281 -48.34375 12.722656 -46.050781 12.722656 -43.761719 C 12.46875 -41.472656 12.976562 -38.929688 13.230469 -36.890625 C 13.484375 -33.839844 13.992188 -31.296875 15.265625 -30.023438 C 16.285156 -29.003906 19.082031 -29.003906 21.625 -28.496094 C 23.917969 -28.242188 26.207031 -27.734375 28.242188 -27.734375 C 30.53125 -27.476562 32.820312 -28.242188 35.113281 -27.988281 C 37.402344 -27.988281 39.691406 -27.734375 41.980469 -27.734375 C 44.269531 -27.734375 46.5625 -27.222656 48.851562 -27.222656 C 51.140625 -27.222656 53.429688 -27.734375 55.71875 -27.734375 C 58.011719 -27.734375 60.300781 -27.988281 62.589844 -27.988281 C 65.132812 -27.988281 67.679688 -27.734375 69.714844 -27.734375 C 72.765625 -27.734375 75.058594 -27.988281 77.09375 -27.988281 C 80.910156 -27.988281 83.199219 -27.988281 84.214844 -27.222656 C 85.488281 -26.207031 85.488281 -23.917969 85.234375 -20.101562 C 84.980469 -18.066406 84.726562 -15.773438 84.726562 -12.722656 C 84.214844 -10.6875 83.960938 -8.140625 84.214844 -5.851562 C 84.472656 -2.796875 85.488281 -0.761719 87.523438 -0.253906 C 88.289062 -0.253906 90.832031 0.253906 93.886719 0.761719 C 96.175781 0.761719 98.210938 1.527344 100.5 1.527344 C 103.042969 1.78125 105.335938 1.019531 107.371094 1.019531 C 110.675781 0.761719 112.710938 0.507812 112.710938 -0.761719 C 112.710938 -3.054688 112.710938 -5.089844 112.457031 -6.871094 C 112.457031 -8.90625 112.710938 -10.941406 112.457031 -12.976562 C 112.203125 -15.011719 111.695312 -17.046875 111.695312 -18.828125 C 111.441406 -20.863281 111.695312 -22.898438 111.949219 -24.679688 C 112.457031 -26.207031 113.730469 -27.222656 115.257812 -26.96875 C 116.785156 -26.714844 119.074219 -26.460938 121.617188 -26.714844 C 123.398438 -26.96875 125.433594 -28.242188 127.46875 -29.003906 C 128.234375 -29.257812 128.742188 -29.515625 128.996094 -30.277344 C 129.503906 -32.058594 130.015625 -34.855469 130.269531 -37.65625 C 130.269531 -40.707031 130.523438 -43.761719 130.777344 -45.289062 C 130.777344 -47.324219 131.03125 -49.359375 130.777344 -50.886719 Z M 86.761719 -113.476562 C 86.761719 -111.441406 86.761719 -109.152344 86.507812 -106.859375 C 86.507812 -104.570312 85.996094 -102.28125 85.996094 -99.992188 C 85.742188 -97.703125 85.996094 -95.410156 85.996094 -93.121094 C 85.996094 -91.085938 85.996094 -88.796875 85.996094 -86.507812 C 85.996094 -84.214844 85.742188 -81.925781 85.742188 -79.636719 C 85.488281 -77.347656 85.234375 -75.058594 85.234375 -73.023438 C 85.234375 -70.730469 84.980469 -68.441406 84.980469 -66.40625 C 84.980469 -63.863281 85.234375 -61.570312 85.234375 -59.535156 C 85.234375 -58.011719 81.417969 -56.738281 79.636719 -56.738281 C 77.601562 -56.738281 75.3125 -57.246094 72.765625 -57.246094 C 70.730469 -57.246094 68.1875 -56.484375 65.898438 -56.484375 C 63.609375 -56.484375 61.316406 -56.484375 59.027344 -56.484375 C 56.738281 -56.484375 54.449219 -56.484375 52.160156 -56.484375 C 49.867188 -56.484375 48.851562 -60.046875 49.867188 -62.082031 C 51.140625 -64.117188 52.160156 -66.40625 53.429688 -68.441406 C 54.449219 -70.476562 55.976562 -72.511719 57.246094 -74.546875 C 58.265625 -76.839844 59.792969 -78.617188 60.808594 -80.65625 C 62.082031 -82.945312 63.351562 -84.726562 64.625 -86.761719 C 65.898438 -89.050781 66.660156 -91.339844 67.933594 -93.375 C 69.207031 -95.410156 70.476562 -97.445312 71.75 -99.480469 C 73.023438 -101.519531 74.546875 -103.296875 75.820312 -105.335938 C 77.09375 -107.371094 78.617188 -109.152344 79.890625 -111.1875 C 81.671875 -113.476562 86.761719 -116.527344 86.761719 -113.476562 Z M 86.761719 -113.476562 "/></g></g></g><g fill="#000000" fill-opacity="1"><g transform="translate(309.33549, 174.520341)"><g><path d="M 130.777344 -50.886719 C 130.523438 -53.175781 129.25 -54.449219 127.46875 -54.957031 C 125.6875 -55.464844 122.890625 -56.484375 120.089844 -56.484375 C 116.019531 -56.738281 115.765625 -54.195312 112.203125 -55.71875 C 111.949219 -57.753906 112.203125 -60.300781 112.203125 -62.84375 C 111.949219 -64.878906 111.949219 -67.167969 111.949219 -69.460938 C 111.949219 -71.75 112.203125 -74.039062 112.203125 -76.074219 C 112.203125 -78.617188 111.949219 -80.65625 112.203125 -82.945312 C 112.203125 -85.488281 112.203125 -87.523438 112.203125 -89.558594 C 112.203125 -91.847656 112.457031 -94.394531 112.457031 -96.683594 C 112.457031 -98.972656 112.203125 -101.261719 112.203125 -103.554688 C 112.203125 -106.097656 112.203125 -108.386719 112.203125 -110.675781 C 112.203125 -112.96875 112.203125 -115.257812 112.203125 -117.546875 C 112.203125 -120.089844 112.457031 -122.382812 112.457031 -124.671875 C 112.457031 -126.960938 112.457031 -129.25 112.457031 -131.539062 C 112.457031 -133.832031 112.203125 -136.375 112.203125 -138.664062 C 112.203125 -140.953125 112.457031 -143.246094 112.457031 -145.535156 C 112.457031 -148.078125 112.457031 -150.113281 112.203125 -151.894531 C 111.949219 -154.949219 111.695312 -156.730469 110.675781 -158.253906 C 109.660156 -160.035156 107.878906 -161.054688 105.335938 -161.308594 C 103.554688 -161.308594 101.261719 -160.800781 98.71875 -160.800781 C 94.902344 -160.800781 92.359375 -160.800781 90.832031 -160.546875 C 88.289062 -159.78125 87.269531 -158.253906 83.960938 -156.476562 C 83.199219 -155.964844 80.910156 -154.183594 78.875 -152.402344 C 77.09375 -150.367188 74.800781 -148.585938 74.292969 -147.824219 C 73.023438 -145.789062 72.257812 -143.5 70.984375 -141.71875 C 69.714844 -139.9375 68.1875 -138.15625 67.167969 -136.375 C 65.898438 -134.339844 64.878906 -132.304688 63.863281 -130.523438 C 62.589844 -128.488281 61.570312 -126.453125 60.300781 -124.671875 C 59.027344 -122.890625 58.011719 -120.855469 56.738281 -119.074219 C 55.464844 -117.292969 54.195312 -115.257812 53.175781 -113.476562 C 51.902344 -111.695312 50.886719 -109.660156 49.613281 -107.625 C 48.597656 -105.84375 47.070312 -104.0625 45.796875 -102.28125 C 44.523438 -100.246094 43.253906 -98.464844 41.980469 -96.683594 C 40.964844 -94.648438 39.4375 -92.867188 38.164062 -91.085938 C 37.148438 -89.050781 36.382812 -87.015625 35.113281 -84.980469 C 33.839844 -83.199219 32.566406 -81.417969 31.550781 -79.382812 C 30.277344 -77.601562 29.003906 -75.566406 27.734375 -73.785156 C 26.714844 -72.003906 25.441406 -70.222656 24.171875 -68.1875 C 23.152344 -66.40625 22.136719 -64.371094 20.863281 -62.335938 C 19.84375 -60.554688 18.828125 -58.519531 17.554688 -56.738281 C 16.027344 -54.957031 15.011719 -52.921875 14.25 -50.632812 C 13.738281 -48.34375 12.722656 -46.050781 12.722656 -43.761719 C 12.46875 -41.472656 12.976562 -38.929688 13.230469 -36.890625 C 13.484375 -33.839844 13.992188 -31.296875 15.265625 -30.023438 C 16.285156 -29.003906 19.082031 -29.003906 21.625 -28.496094 C 23.917969 -28.242188 26.207031 -27.734375 28.242188 -27.734375 C 30.53125 -27.476562 32.820312 -28.242188 35.113281 -27.988281 C 37.402344 -27.988281 39.691406 -27.734375 41.980469 -27.734375 C 44.269531 -27.734375 46.5625 -27.222656 48.851562 -27.222656 C 51.140625 -27.222656 53.429688 -27.734375 55.71875 -27.734375 C 58.011719 -27.734375 60.300781 -27.988281 62.589844 -27.988281 C 65.132812 -27.988281 67.679688 -27.734375 69.714844 -27.734375 C 72.765625 -27.734375 75.058594 -27.988281 77.09375 -27.988281 C 80.910156 -27.988281 83.199219 -27.988281 84.214844 -27.222656 C 85.488281 -26.207031 85.488281 -23.917969 85.234375 -20.101562 C 84.980469 -18.066406 84.726562 -15.773438 84.726562 -12.722656 C 84.214844 -10.6875 83.960938 -8.140625 84.214844 -5.851562 C 84.472656 -2.796875 85.488281 -0.761719 87.523438 -0.253906 C 88.289062 -0.253906 90.832031 0.253906 93.886719 0.761719 C 96.175781 0.761719 98.210938 1.527344 100.5 1.527344 C 103.042969 1.78125 105.335938 1.019531 107.371094 1.019531 C 110.675781 0.761719 112.710938 0.507812 112.710938 -0.761719 C 112.710938 -3.054688 112.710938 -5.089844 112.457031 -6.871094 C 112.457031 -8.90625 112.710938 -10.941406 112.457031 -12.976562 C 112.203125 -15.011719 111.695312 -17.046875 111.695312 -18.828125 C 111.441406 -20.863281 111.695312 -22.898438 111.949219 -24.679688 C 112.457031 -26.207031 113.730469 -27.222656 115.257812 -26.96875 C 116.785156 -26.714844 119.074219 -26.460938 121.617188 -26.714844 C 123.398438 -26.96875 125.433594 -28.242188 127.46875 -29.003906 C 128.234375 -29.257812 128.742188 -29.515625 128.996094 -30.277344 C 129.503906 -32.058594 130.015625 -34.855469 130.269531 -37.65625 C 130.269531 -40.707031 130.523438 -43.761719 130.777344 -45.289062 C 130.777344 -47.324219 131.03125 -49.359375 130.777344 -50.886719 Z M 86.761719 -113.476562 C 86.761719 -111.441406 86.761719 -109.152344 86.507812 -106.859375 C 86.507812 -104.570312 85.996094 -102.28125 85.996094 -99.992188 C 85.742188 -97.703125 85.996094 -95.410156 85.996094 -93.121094 C 85.996094 -91.085938 85.996094 -88.796875 85.996094 -86.507812 C 85.996094 -84.214844 85.742188 -81.925781 85.742188 -79.636719 C 85.488281 -77.347656 85.234375 -75.058594 85.234375 -73.023438 C 85.234375 -70.730469 84.980469 -68.441406 84.980469 -66.40625 C 84.980469 -63.863281 85.234375 -61.570312 85.234375 -59.535156 C 85.234375 -58.011719 81.417969 -56.738281 79.636719 -56.738281 C 77.601562 -56.738281 75.3125 -57.246094 72.765625 -57.246094 C 70.730469 -57.246094 68.1875 -56.484375 65.898438 -56.484375 C 63.609375 -56.484375 61.316406 -56.484375 59.027344 -56.484375 C 56.738281 -56.484375 54.449219 -56.484375 52.160156 -56.484375 C 49.867188 -56.484375 48.851562 -60.046875 49.867188 -62.082031 C 51.140625 -64.117188 52.160156 -66.40625 53.429688 -68.441406 C 54.449219 -70.476562 55.976562 -72.511719 57.246094 -74.546875 C 58.265625 -76.839844 59.792969 -78.617188 60.808594 -80.65625 C 62.082031 -82.945312 63.351562 -84.726562 64.625 -86.761719 C 65.898438 -89.050781 66.660156 -91.339844 67.933594 -93.375 C 69.207031 -95.410156 70.476562 -97.445312 71.75 -99.480469 C 73.023438 -101.519531 74.546875 -103.296875 75.820312 -105.335938 C 77.09375 -107.371094 78.617188 -109.152344 79.890625 -111.1875 C 81.671875 -113.476562 86.761719 -116.527344 86.761719 -113.476562 Z M 86.761719 -113.476562 "/></g></g></g></svg>